# xmcd
#
# Track frame offsets:
#	150
#	12780
#	25925
#	37975
#	51017
#	63940
#	76937
#	88487
#	100425
#	112050
#
# Disc length: 1643
#
# Revision: 5
# Processed by: cddbd v1.5.1PL0 Copyright (c) Steve Scherf et al.
# Submitted via: ExactAudioCopy v0.90b4
# Normalized: r3:TDELIM( - ),TSWAP
#
DISCID=7a06690a
DTITLE=Patsy Cline - Loretta Lynn - Just a Walk With Thee
DYEAR=1900
DGENRE=Country
TTITLE0=Patsy Cline - Just A Closer Walk With Thee
TTITLE1=Loretta Lynn - How Great Thou Art
TTITLE2=Loretta Lynn - I'd Rather Have Jesus
TTITLE3=Loretta Lynn - (There'll Be) Peace In The Valley
TTITLE4=Patsy Cline - Life's Railway To Heaven
TTITLE5=Patsy Cline - If I Could See The World Through The Eyes Of A Child
TTITLE6=Loretta Lynn - When I Hear My Children Pray
TTITLE7=Loretta Lynn - In The Garden
TTITLE8=Loretta Lynn - May God Bless America Again
TTITLE9=Loretta Lynn - Living In God's Coutnry
EXTD=
EXTT0=
EXTT1=
EXTT2=
EXTT3=
EXTT4=
EXTT5=
EXTT6=
EXTT7=
EXTT8=
EXTT9=
PLAYORDER=
